<?xml version="1.0" encoding="UTF-8"?>
<svg width="100pt" height="100pt" version="1.1" viewBox="0 0 100 100" xmlns="http://www.w3.org/2000/svg">
 <defs>
  <clipPath id="d">
   <path d="m41 43h17v15h-17z"/>
  </clipPath>
  <clipPath id="c">
   <path d="m38.473 6.9883 54.539 31.488-31.488 54.539-54.539-31.488z"/>
  </clipPath>
  <clipPath id="b">
   <path d="m32 32h36v36h-36z"/>
  </clipPath>
  <clipPath id="a">
   <path d="m38.473 6.9883 54.539 31.488-31.488 54.539-54.539-31.488z"/>
  </clipPath>
 </defs>
 <g>
  <g clip-path="url(#d)">
   <g clip-path="url(#c)">
    <path d="m42.621 51.648-1.3594-5.0664 12.672-3.3984 3.3945 12.672-5.0664 1.3594-2.0391-7.6016z" fill="#be3454"/>
   </g>
  </g>
  <g clip-path="url(#b)">
   <g clip-path="url(#a)">
    <path d="m35.227 41.473c4.7109-8.1562 15.141-10.953 23.301-6.2422 8.1562 4.7109 10.953 15.141 6.2422 23.301-4.7109 8.1562-15.141 10.953-23.301 6.2422-8.1562-4.7109-10.953-15.141-6.2422-23.301zm4.5469 2.625c3.2578-5.6484 10.48-7.582 16.129-4.3203 5.6484 3.2578 7.582 10.48 4.3203 16.129-3.2578 5.6484-10.48 7.582-16.129 4.3203-5.6484-3.2578-7.582-10.48-4.3203-16.129z" fill="#be3454" fill-rule="evenodd"/>
   </g>
  </g>
 </g>
</svg>
